<?xml version="1.0" encoding="utf-8"?>
<!-- Generator: Adobe Illustrator 22.1.0, SVG Export Plug-In . SVG Version: 6.00 Build 0)  -->
<svg version="1.1" id="Layer_1" xmlns="http://www.w3.org/2000/svg" xmlns:xlink="http://www.w3.org/1999/xlink" x="0px" y="0px"
	 viewBox="0 0 512 512" style="enable-background:new 0 0 512 512;" xml:space="preserve">
<g>
	<path d="M416.7,31H95.3C59.8,31,31,59.8,31,95.3v321.4c0,35.5,28.8,64.3,64.3,64.3h321.4c35.5,0,64.3-28.8,64.3-64.3V95.3
		C481,59.8,452.2,31,416.7,31z M159.6,384.6c-17.7,0-32.1-14.4-32.1-32.1c0-17.7,14.4-32.1,32.1-32.1s32.1,14.4,32.1,32.1
		C191.7,370.2,177.3,384.6,159.6,384.6z M159.6,191.7c-17.7,0-32.1-14.4-32.1-32.1s14.4-32.1,32.1-32.1s32.1,14.4,32.1,32.1
		S177.3,191.7,159.6,191.7z M352.4,384.6c-17.7,0-32.1-14.4-32.1-32.1c0-17.7,14.4-32.1,32.1-32.1c17.7,0,32.1,14.4,32.1,32.1
		C384.6,370.2,370.2,384.6,352.4,384.6z M352.4,191.7c-17.7,0-32.1-14.4-32.1-32.1s14.4-32.1,32.1-32.1c17.7,0,32.1,14.4,32.1,32.1
		S370.2,191.7,352.4,191.7z"/>
</g>
</svg>
